<svg width="40" height="40" viewBox="0 0 40 40" fill="none" xmlns="http://www.w3.org/2000/svg">
<g clip-path="url(#clip0)">
<path d="M24.7022 6.7184L2.6936 28.7286C2.58287 28.8396 2.50292 28.9798 2.46485 29.1305L0.0254093 38.9219C-0.0475614 39.2166 0.0390516 39.5301 0.254156 39.7452C0.416912 39.908 0.63868 39.9981 0.865523 39.9981C0.935004 39.9981 1.00607 39.9895 1.07523 39.9721L10.8666 37.5323C11.0192 37.4942 11.1579 37.4146 11.2686 37.3039L33.2791 15.2953L24.7022 6.7184Z" fill="white"/>
<path d="M38.7315 3.71742L36.2816 1.26751C34.6442 -0.36989 31.7904 -0.368303 30.1549 1.26751L27.1539 4.2685L35.7305 12.8451L38.7315 9.84409C39.5494 9.0265 39.9999 7.93829 39.9999 6.78091C39.9999 5.62354 39.5494 4.53532 38.7315 3.71742Z" fill="white"/>
</g>
<defs>
<clipPath id="clip0">
<rect width="40" height="40" fill="white"/>
</clipPath>
</defs>
</svg>
