<svg width="27" height="32" viewBox="0 0 27 32" fill="none" xmlns="http://www.w3.org/2000/svg">
<path d="M10.8038 0.000124161C10.6253 -0.0022994 10.448 0.0307791 10.2823 0.0974389C10.1166 0.164099 9.96584 0.263011 9.83871 0.388432C9.71157 0.513853 9.61062 0.663284 9.54172 0.828045C9.47281 0.992806 9.43733 1.16962 9.43733 1.3482H1.36728C1.18864 1.34568 1.01129 1.37868 0.845515 1.44529C0.679744 1.51191 0.528866 1.6108 0.401648 1.73624C0.27443 1.86167 0.17341 2.01113 0.104459 2.17594C0.0355075 2.34076 0 2.51763 0 2.69628C0 2.87494 0.0355075 3.05181 0.104459 3.21662C0.17341 3.38144 0.27443 3.5309 0.401648 3.65633C0.528866 3.78176 0.679744 3.88066 0.845515 3.94727C1.01129 4.01389 1.18864 4.04689 1.36728 4.04436H25.6327C25.8114 4.04689 25.9887 4.01389 26.1545 3.94727C26.3203 3.88066 26.4711 3.78176 26.5984 3.65633C26.7256 3.5309 26.8266 3.38144 26.8955 3.21662C26.9645 3.05181 27 2.87494 27 2.69628C27 2.51763 26.9645 2.34076 26.8955 2.17594C26.8266 2.01113 26.7256 1.86167 26.5984 1.73624C26.4711 1.6108 26.3203 1.51191 26.1545 1.44529C25.9887 1.37868 25.8114 1.34568 25.6327 1.3482H17.5627C17.5627 1.16962 17.5272 0.992806 17.4583 0.828045C17.3894 0.663284 17.2884 0.513853 17.1613 0.388432C17.0342 0.263011 16.8834 0.164099 16.7177 0.0974389C16.552 0.0307791 16.3747 -0.0022994 16.1962 0.000124161H10.8038ZM1.36728 6.74052V28.3098C1.36728 29.7994 2.57381 31.006 4.06344 31.006H22.9366C24.4262 31.006 25.6327 29.7994 25.6327 28.3098V6.74052H1.36728Z" fill="white"/>
</svg>
